<svg xmlns="http://www.w3.org/2000/svg" viewBox="0 0 58 58"><path d="M47.6 15h-3.3l.1-.5c.1-1.2-.3-2.3-1.2-3.2-.7-.7-1.6-1.2-2.6-1.3V8c0-1.7-1.3-3-3-3h-2V3c0-1.7-1.3-3-3-3h-12c-1.7 0-3 1.3-3 3v2h-2c-1.7 0-3 1.3-3 3v2h-2.2c-1.1 0-2.1.6-2.7 1.6-.5 1-.5 2.2.2 3.1l3.8 5.7L14 43c.2.8.5 1.4.9 2h-2.3c-1.7 0-3 1.3-3 3v10h34V48c0-1.7-1.3-3-3-3H39c.9-1 1.4-2.2 1.5-3.5l.2-1.5h6.9c1.7 0 3-1.3 3-3V18c0-1.7-1.3-3-3-3zM17.1 55c-1.9 0-3.5-1.6-3.5-3.5s1.6-3.5 3.5-3.5 3.5 1.6 3.5 3.5-1.5 3.5-3.5 3.5zm8.5-1c0 .6-.4 1-1 1s-1-.4-1-1v-5c0-.6.4-1 1-1s1 .4 1 1v5zm4 0c0 .6-.4 1-1 1s-1-.4-1-1v-5c0-.6.4-1 1-1s1 .4 1 1v5zm6.5 1c-1.9 0-3.5-1.6-3.5-3.5s1.6-3.5 3.5-3.5 3.5 1.6 3.5 3.5-1.5 3.5-3.5 3.5zM20.6 37h-2c-.6 0-1-.4-1-1s.4-1 1-1h2c.6 0 1 .4 1 1s-.4 1-1 1zm2-4h-4c-.6 0-1-.4-1-1s.4-1 1-1h4c.6 0 1 .4 1 1s-.4 1-1 1zm-5-5c0-.6.4-1 1-1h2c.6 0 1 .4 1 1s-.4 1-1 1h-2c-.5 0-1-.4-1-1zm5-3h-4c-.6 0-1-.4-1-1s.4-1 1-1h4c.6 0 1 .4 1 1s-.4 1-1 1zm-8-17c0-.6.4-1 1-1h22c.6 0 1 .4 1 1v2h-24V8zm34 29c0 .6-.4 1-1 1H41l3.2-21h3.4c.6 0 1 .4 1 1v19z" fill="#b4c1d2"/></svg>