<svg version="1.1" id="Capa_1" xmlns="http://www.w3.org/2000/svg" x="0" y="0" viewBox="0 0 447.1 447.1" xml:space="preserve"><style>.st0{fill:#b4c1d2}</style><path class="st0" d="M365.8 40.9v86.9c23.9-1.4 23.9-23.6 23.9-43.4s-.1-42.1-23.9-43.5zM231.2 247.5c-26 5-37.6 19.6-37.6 37 0 20.4 16.1 37 52.6 38.6 12 22.5 33.4 38.3 71.9 38.3 87.1 0 87.1-81 87.1-137.9H231c0 7.7 0 15.7.2 24zm114.7 76.4c14.7-21.7 20-46.4 20-72.3 0-12.2 18.9-12.2 18.9 0 .1 29-6.2 57.6-22.6 81.9-6.8 9.9-23.2.5-16.3-9.6zm-129.9-39c-.2-9.4 1.8-16.7 16-20.4 1 14.2 3 28.4 7.1 41.4-20.5-2.7-22.9-10.1-23.1-21zM138.2 443H427c13.1 0 20.1-13.4 20.1-26v-18.4c0-13.9-8.1-28.8-20.1-28.8H160.5c-9.4 0-17.1-2.6-22.3-7.2V443z"/><path class="st0" d="M271.3 4.1H22.4C9.4 4.1 0 13.5 0 26.4V417c0 12.5 9 26 22.4 26h107.7V219.8c0-16.9 12.5-28.8 30.5-28.8h110.7c13.2 0 21.4-13.7 21.4-26.5v-138c0-2.2-.3-4.2-.7-6.1-2.4-10-10-16.3-20.7-16.3zM112.4 104.3c-.5 0-.9 0-1.4-.1l-6.4-1.1c-5.5 12.2-17.7 20.7-31.9 20.7-19.4 0-35.1-15.7-35.1-35.1s15.7-35.1 35.1-35.1c18.9 0 34.1 14.9 34.9 33.5l6.1 1c4.4.8 7.4 5 6.6 9.4-.5 4-4 6.8-7.9 6.8zm208.2 54.2h18.6l2.6-8.1 2.6-8.1h13.3V28.5h-56.9v113.8h12.4l3.7 8.1z"/></svg>