<svg xmlns="http://www.w3.org/2000/svg" viewBox="0 0 512 512"><path d="M224 96c0-53-35.8-96-80-96S64 43 64 96c0 45.8 26.8 83.9 62.5 93.5L96.3 458.6c-.2 1.8-.3 3.6-.3 5.4 0 26.5 21.5 48 48 48s48-21.5 48-48c0-1.5-.1-3.1-.2-4.6l-25.7-271.6C199.5 176.3 224 139.7 224 96zM432 0c-8.8 0-16 7.2-16 16v80c0 8.8-7.2 16-16 16s-16-7.2-16-16V16c0-8.8-7.2-16-16-16s-16 7.2-16 16v80c0 8.8-7.2 16-16 16s-16-7.2-16-16V16c0-8.8-7.2-16-16-16s-16 7.2-16 16v96c0 38 26.8 69.9 62.4 77.9l-30.1 268.7c-.2 1.8-.3 3.6-.3 5.4 0 26.5 21.5 48 48 48s48-21.5 48-48c0-1.5-.1-3.1-.2-4.6l-25.6-270.9c33.3-9.7 57.8-40.1 57.8-76.5V16c0-8.8-7.2-16-16-16z" fill="#0f2238"/></svg>