<svg xmlns="http://www.w3.org/2000/svg" viewBox="0 0 512 512"><path d="M55.7 465.5h400.6V512H55.7zM29.1 155.2v279.9H483V155.2H29.1zm385.4 70.9h-317v-30.4h316.9l.1 30.4zM29.1 0v124.8H483V0H29.1zM128 84.3H97.5V40.5H128v43.8zm50.7 0h-30.4V40.5h30.4v43.8zm46.2-1c-11.6 0-20.9-9.4-20.9-20.9 0-11.6 9.4-20.9 20.9-20.9 11.6 0 20.9 9.4 20.9 20.9s-9.3 20.9-20.9 20.9zm62.2 0c-11.6 0-20.9-9.4-20.9-20.9 0-11.6 9.4-20.9 20.9-20.9S308 50.8 308 62.4s-9.4 20.9-20.9 20.9zm76.7 1h-30.4V40.5h30.4v43.8zm50.7 0H384V40.5h30.4v43.8z" fill="#b4c1d2"/></svg>