<svg version="1.1" id="Layer_1" xmlns="http://www.w3.org/2000/svg" x="0" y="0" viewBox="0 0 512 512" xml:space="preserve"><style>.st0{fill:#b4c1d2}</style><path class="st0" d="M106.7 213.3v53.3h298.7v-53.3c0-29.4 23.9-53.3 53.3-53.3h10.7v-32c0-17.6-14.4-32-32-32H74.7c-17.6 0-32 14.4-32 32v32h10.7c29.4 0 53.3 23.9 53.3 53.3z"/><path class="st0" d="M480 181.3h-21.3c-17.6 0-32 14.4-32 32v64c0 5.9-4.8 10.7-10.7 10.7H96c-5.9 0-10.7-4.8-10.7-10.7v-64c0-17.6-14.4-32-32-32H32c-17.6 0-32 14.4-32 32v128c0 17.6 14.4 32 32 32h10.7v32c0 5.9 4.8 10.7 10.7 10.7h64c5.9 0 10.7-4.8 10.7-10.7v-32h256v32c0 5.9 4.8 10.7 10.7 10.7h64c5.9 0 10.7-4.8 10.7-10.7v-32H480c17.6 0 32-14.4 32-32v-128c0-17.6-14.4-32-32-32z"/></svg>