<svg xmlns="http://www.w3.org/2000/svg" viewBox="0 0 53.2 53.2"><path d="M4.2 45.6h6v3h-6zm35 0h6v3h-6zM9.6 9.5c-.2.3-.4.6-.4 1.1v4.1h31v-4.1c0-.4-.1-.8-.4-1.1.2-.3.4-.6.5-.9.1-.3.2-.6.2-.9 0-1.6-2.7-3-4.5-3H13.3c-1.9 0-4.5 1.4-4.5 3 0 .4.1.7.2 1 .1.2.3.5.6.8zm42.7 21.1h-2.2c-.5 0-.9.4-.9.9v1.2h-.9L46.9 17c-.1-.8-.8-1.4-1.5-1.4H3.9c-.8 0-1.4.6-1.5 1.3L0 43.5c0 .3 0 .5.2.7.2.2.5.3 1 .3h46.9c.4 0 .8-.1 1-.4.2-.2.2-.4.2-.7l-.8-8.9h.7v1.1c0 .3.2.6.5.8.1.1.3.1.4.1h2.2c.5 0 .9-.4.9-.9v-4.2c0-.4-.4-.8-.9-.8z" fill="#b4c1d2"/></svg>