<svg width="29" height="24" fill="none" xmlns="http://www.w3.org/2000/svg"><path fill-rule="evenodd" clip-rule="evenodd" d="M24.48 12.706V24H4.32V12.706H0L14.4 0l14.4 12.706h-4.32zm-6.192-4.942L21.6 10.49l-.928 1.08-3.313-2.725.93-1.08zm-7.776 0l.922 1.08-3.305 2.718-.929-1.08 3.312-2.718zm4.249 4.334h-1.08v4.236l3.42 2.011.54-.868-2.88-1.673v-3.706zm-6.84 3.53c0-3.509 2.901-6.354 6.48-6.354 3.578 0 6.48 2.845 6.48 6.353 0 3.509-2.902 6.353-6.48 6.353-3.586 0-6.48-2.844-6.48-6.353zm6.48 4.94c-2.787 0-5.04-2.209-5.04-4.94 0-2.732 2.253-4.942 5.04-4.942 2.786 0 5.04 2.21 5.04 4.941 0 2.732-2.254 4.942-5.04 4.942z" fill="#E95037"/></svg>