<svg xmlns="http://www.w3.org/2000/svg" viewBox="0 0 512 512"><path d="M469.3 106.7H362.7V85.3c0-23.5-19.1-42.7-42.7-42.7H192c-23.5 0-42.7 19.1-42.7 42.7v21.3H42.7C19.1 106.7 0 125.8 0 149.3v64C0 236.9 19.1 256 42.7 256h170.7v-10.7c0-5.9 4.8-10.7 10.7-10.7h64c5.9 0 10.7 4.8 10.7 10.7V256h170.7c23.5 0 42.7-19.1 42.7-42.7v-64c-.2-23.5-19.3-42.6-42.9-42.6zm-149.3 0H192V85.3h128v21.4zm186.1 160.8c-3.6-1.8-8-1.4-11.2 1.1-7.6 5.7-16.4 8.8-25.6 8.8H298.7v32c0 5.9-4.8 10.7-10.7 10.7h-64c-5.9 0-10.7-4.8-10.7-10.7v-32H42.7c-9.1 0-18-3-25.6-8.8-3.2-2.5-7.6-2.9-11.2-1.1-3.6 1.8-5.9 5.5-5.9 9.6v149.6c0 23.5 19.1 42.7 42.7 42.7h426.7c23.5 0 42.7-19.1 42.7-42.7V277.1c-.1-4.1-2.4-7.8-6-9.6z" fill="#0f2238"/></svg>