<svg xmlns="http://www.w3.org/2000/svg" viewBox="0 0 512 512"><path d="M498.7 435.3L297.9 234.6 63.4 0H45l-3.7 9.5c-9.9 25.1-14.1 50.8-12.2 74.2 2.2 26.8 12.3 49.9 29.4 67l183.1 183.1 24.2-24.2L435 499c16.8 16.8 45.8 17.8 63.7 0 17.5-17.6 17.5-46.1 0-63.7zm-342-143.9L13.3 434.9c-17.6 17.6-17.6 46.1 0 63.7 16.7 16.7 45.5 18.1 63.7 0l143.4-143.4-63.7-63.8zM490.3 85.2l-81.4 81.3-21.2-21.2L469 64l-21.2-21.2-81.4 81.3-21.2-21.2 81.4-81.3L405.4.4 299.3 106.5c-13 13-20.7 30.2-21.8 48.5-.3 4.6-1.3 9.2-3.1 13.5l68.9 68.9c4.3-1.7 8.9-2.8 13.5-3.1 18.3-1.1 35.6-8.8 48.5-21.8l106.1-106.1-21.1-21.2z" fill="#0f2238"/></svg>