<svg version="1.1" id="Layer_1" xmlns="http://www.w3.org/2000/svg" x="0" y="0" viewBox="0 0 512 512" xml:space="preserve"><style>.st0{fill:#0f2238}</style><path class="st0" d="M256 119.7c-75.1 0-136.3 61.1-136.3 136.3S180.9 392.3 256 392.3 392.3 331.1 392.3 256 331.1 119.7 256 119.7z"/><path class="st0" d="M437 75C388.7 26.6 324.4 0 256 0S123.3 26.6 75 75C26.6 123.3 0 187.6 0 256s26.6 132.7 75 181c48.4 48.4 112.6 75 181 75s132.7-26.6 181-75 75-112.6 75-181-26.6-132.7-75-181zM256 422.7c-91.9 0-166.7-74.8-166.7-166.7S164.1 89.3 256 89.3 422.7 164.1 422.7 256 347.9 422.7 256 422.7z"/></svg>