<svg version="1.1" id="Capa_1" xmlns="http://www.w3.org/2000/svg" x="0" y="0" viewBox="0 0 438.5 438.5" xml:space="preserve"><style>.st0{fill:#0f2238}</style><path class="st0" d="M382.6 108.5l-89.1-89.1C284 9.9 271.4 3.7 255.8.9v145.3h145.3c-2.8-15.6-9-28.2-18.5-37.7z"/><path class="st0" d="M246.7 182.7c-7.6 0-14.1-2.7-19.4-8-5.3-5.3-8-11.8-8-19.4V0H64c-7.6 0-14.1 2.7-19.4 8-5.3 5.3-8 11.8-8 19.4v383.7c0 7.6 2.7 14.1 8 19.4 5.3 5.3 11.8 8 19.4 8h310.6c7.6 0 14.1-2.7 19.4-8 5.3-5.3 8-11.8 8-19.4V182.7H246.7z"/></svg>