<svg xmlns="http://www.w3.org/2000/svg" viewBox="0 0 491.807 491.807" width="512" height="512"><path d="M467.269 223.094l-170.08-170.08a18.922 18.922 0 00-20.6-4.101c-7.066 2.91-11.659 9.827-11.659 17.462v75.667c-108.738 4.46-203.605 77.877-233.992 183.081-13.153 45.62-12.133 82.678-11.755 96.644l.075 3.666c0 8.504 5.688 15.97 13.871 18.218 1.682.454 3.364.68 5.027.68 6.539 0 12.775-3.42 16.233-9.222 74.854-125.822 174.03-129.394 210.541-125.84v97.267c0 7.635 4.593 14.552 11.66 17.462 7.087 2.949 15.194 1.304 20.598-4.1l170.08-170.08c7.39-7.392 7.39-19.336 0-26.724z" data-original="#000000" class="active-path" data-old_color="#000000" fill="#E95037"/></svg>