<svg version="1.1" id="Capa_1" xmlns="http://www.w3.org/2000/svg" x="0" y="0" viewBox="0 0 512 512" xml:space="preserve"><style>.st0{fill:#e95037}</style><path class="st0" d="M256 232.5c-60.3 0-108.2 47.9-108.2 108.2 0 60.3 47.9 108.2 108.2 108.2 60.3 0 108.2-47.9 108.2-108.2 0-60.3-47.9-108.2-108.2-108.2zM313.2 401l-72.7-44.8v-92.8h23.2v81.9l61.8 37.1-12.3 18.6z"/><path class="st0" d="M256 0L0 256h64v256h384V256h64L256 0zm-83.5 169.1l20.1 23.2-71.1 58.7-20.1-23.2 71.1-58.7zM256 479.8c-77.3 0-139.1-61.8-139.1-139.1S178.7 201.6 256 201.6s139.1 61.8 139.1 139.1S333.3 479.8 256 479.8zM390.5 251l-71.1-60.3 20.1-23.2 71.1 60.3-20.1 23.2z"/></svg>