<svg xmlns="http://www.w3.org/2000/svg" width="45.057" height="45.057"><path d="M20.776 14h12.252c1.613 0 1.613-2.5 0-2.5H20.776c-1.611 0-1.611 2.5 0 2.5zm12.252 5.417H20.776c-1.612 0-1.612 2.5 0 2.5h12.252c1.614 0 1.614-2.5 0-2.5zm0 7.483H20.776c-1.612 0-1.612 2.5 0 2.5h12.252c1.614 0 1.614-2.5 0-2.5zm0 7.916H20.776c-1.612 0-1.612 2.5 0 2.5h12.252c1.614 0 1.614-2.5 0-2.5zM16.202 10.872h-3.484c-.126 0-.229.077-.229.172v3.513c0 .094.102.171.229.171h3.484c.126 0 .229-.077.229-.171v-3.513c0-.095-.102-.172-.229-.172zm-.213 7.801h-3.484c-.126 0-.229.077-.229.172v3.513c0 .094.102.171.229.171h3.484c.126 0 .229-.077.229-.171v-3.513c0-.095-.102-.172-.229-.172zm0 7.588h-3.484c-.126 0-.229.077-.229.173v3.512c0 .095.102.172.229.172h3.484c.126 0 .229-.077.229-.172v-3.512c0-.095-.102-.173-.229-.173zm0 7.878h-3.484c-.126 0-.229.077-.229.172v3.514c0 .094.102.17.229.17h3.484c.126 0 .229-.076.229-.17v-3.514c0-.095-.102-.172-.229-.172z"/><path d="M33.431 0H5.179v45.057h34.699V6.25L33.431 0zm3.447 42.056H8.179V3h23.707v4.76h4.992v34.296z"/></svg>