<svg version="1.1" id="Layer_1" xmlns="http://www.w3.org/2000/svg" x="0" y="0" viewBox="0 0 512 512" xml:space="preserve"><style>.st0{fill:#0f2238}</style><path class="st0" d="M62.9 116.3h255.9v233.2H62.9z"/><path class="st0" d="M0 430.6h30.4v46.3h105.9v-46.3h239.4v46.3h105.9v-46.3H512V35.1H0v395.5zM426.6 101c13 0 23.6 10.6 23.6 23.6s-10.6 23.6-23.6 23.6-23.6-10.5-23.6-23.5 10.5-23.7 23.6-23.7zm0 67.5c13 0 23.6 10.6 23.6 23.6s-10.6 23.6-23.6 23.6-23.6-10.5-23.6-23.6 10.5-23.6 23.6-23.6zM388.9 248h75.4v30.4h-75.4V248zm0 50.7h75.4v30.4h-75.4v-30.4zm0 50.7h75.4v30.4h-75.4v-30.4zM32.5 85.8h316.8v294H32.5v-294z"/></svg>