<svg version="1.1" id="Capa_1" xmlns="http://www.w3.org/2000/svg" x="0" y="0" viewBox="0 0 535.5 535.5" xml:space="preserve"><style>.st0{fill:#0f2238}</style><path class="st0" d="M482.9 28.7h-21.8c1.6-2.8 2.6-6.1 2.6-9.6s-1-6.7-2.6-9.6c-3.3-5.7-9.4-9.6-16.5-9.6H320.3c-7.1 0-13.2 3.9-16.5 9.6-1.6 2.8-2.6 6.1-2.6 9.6s1 6.7 2.6 9.6h-72.2c1.6-2.8 2.7-6.1 2.7-9.6s-1-6.7-2.6-9.6c-3.3-5.7-9.4-9.6-16.5-9.6H90.8c-7.1 0-13.2 3.9-16.5 9.6-1.6 2.8-2.6 6.1-2.6 9.6s1 6.7 2.6 9.6H52.6c-15.8 0-28.7 12.9-28.7 28.7v66.9h487.7V57.4c0-15.8-12.9-28.7-28.7-28.7zM114.8 99.2c-10.6 0-19.1-8.6-19.1-19.1S104.2 61 114.8 61s19.1 8.6 19.1 19.1-8.6 19.1-19.1 19.1zm71.7 0c-10.6 0-19.1-8.6-19.1-19.1S175.9 61 186.5 61s19.1 8.6 19.1 19.1-8.6 19.1-19.1 19.1zm81.3 0c-10.6 0-19.1-8.6-19.1-19.1S257.2 61 267.8 61s19.1 8.6 19.1 19.1-8.6 19.1-19.1 19.1zm76.5 0c-10.6 0-19.1-8.6-19.1-19.1S333.7 61 344.3 61s19.1 8.6 19.1 19.1-8.6 19.1-19.1 19.1zm76.5 0c-10.6 0-19.1-8.6-19.1-19.1S410.2 61 420.8 61s19.1 8.6 19.1 19.1-8.6 19.1-19.1 19.1zM23.9 506.8c0 15.8 12.9 28.7 28.7 28.7h430.3c15.8 0 28.7-12.9 28.7-28.7V143.4H23.9v363.4zm76.5-334.7h325.1c5.3 0 9.6 4.3 9.6 9.6s-4.3 9.6-9.6 9.6H100.4c-5.3 0-9.6-4.3-9.6-9.6s4.3-9.6 9.6-9.6zm-19.1 76.5c0-15.8 12.9-28.7 28.7-28.7h315.6c15.8 0 28.7 12.9 28.7 28.7v200.8c0 15.8-12.9 28.7-28.7 28.7H110c-15.8 0-28.7-12.9-28.7-28.7V248.6z"/><path class="st0" d="M202.9 239.1l-102.5 71.6v33l149.7-104.6zM425.5 459h9.6V239.1H292.7L100.4 373.4V459h9.6z"/></svg>