<svg version="1.1" id="Capa_1" xmlns="http://www.w3.org/2000/svg" x="0" y="0" viewBox="0 0 512 512" xml:space="preserve"><style>.st0{fill:#0f2238}</style><path class="st0" d="M256 182.9h-36.6V256H256c20.2 0 36.6-16.4 36.6-36.6s-16.4-36.5-36.6-36.5z"/><path class="st0" d="M475.4 0H36.6C16.4 0 0 16.4 0 36.6v438.9C0 495.6 16.4 512 36.6 512h438.9c20.2 0 36.6-16.4 36.6-36.6V36.6C512 16.4 495.6 0 475.4 0zM256 329.1h-36.6v73.1h-73.1V109.7H256c60.5 0 109.7 49.2 109.7 109.7S316.5 329.1 256 329.1z"/></svg>