<svg xmlns="http://www.w3.org/2000/svg" viewBox="0 0 512 512"><path d="M336 200h-48v-48h32c17.7 0 32-14.3 32-32s-14.3-32-32-32H192c-17.7 0-32 14.3-32 32s14.3 32 32 32h32v48h-48c-17.7 0-32 13.8-32 31.5v160c0 17.7 14.3 32.5 32 32.5h160c17.7 0 32-14.8 32-32.5v-160c0-17.7-14.3-31.5-32-31.5zm144 15.8c-17.7 0-32 14.3-32 32.3h-48v128h48c0 17 14.3 31.8 32 31.8s32-14.6 32-32.3v-128c0-17.8-14.3-31.8-32-31.8zm-448 0c-17.7 0-32 14.1-32 31.8v128c0 17.7 14.3 32.3 32 32.3S64 393 64 376h48V248H64c0-18-14.3-32.2-32-32.2z" fill="#0f2238"/></svg>