<svg xmlns="http://www.w3.org/2000/svg" viewBox="0 0 475.1 475.1"><path d="M475.1 186.6c0-7-5.3-11.4-16-13.1l-143.3-20.8-64.3-130c-3.6-7.8-8.3-11.7-14-11.7-5.7 0-10.4 3.9-14 11.7l-64.2 129.9L16 173.4c-10.7 1.7-16 6.1-16 13.1 0 4 2.4 8.6 7.1 13.7L111 301.3 86.5 444.1c-.4 2.7-.6 4.6-.6 5.7 0 4 1 7.4 3 10.1 2 2.8 5 4.1 9 4.1 3.4 0 7.2-1.1 11.4-3.4l128.2-67.4 128.2 67.4c4 2.3 7.8 3.4 11.4 3.4 7.8 0 11.7-4.8 11.7-14.3 0-2.5-.1-4.4-.3-5.7L364 301.4l103.6-101.1c5-5 7.5-9.5 7.5-13.7zM324.6 288.5l20.6 120.2-107.6-56.8-107.9 56.8 20.8-120.2-87.4-84.8L183.6 186l54-109.1 54 109.1L412 203.7l-87.4 84.8z" fill="#0f2238"/></svg>