<svg version="1.1" id="Layer_1" xmlns="http://www.w3.org/2000/svg" x="0" y="0" viewBox="0 0 512 512" xml:space="preserve"><style>.st0{fill:#0f2238}</style><path class="st0" d="M191.7 166.6c-8.3 0-15-6.7-15-15s6.7-15 15-15h6.7c-4.9-15.1-16.8-26.9-31.9-31.7v6.5c0 8.3-6.7 15-15 15s-15-6.7-15-15v-6.3c-14.8 4.9-26.5 16.6-31.3 31.5h6.1c8.3 0 15 6.7 15 15s-6.7 15-15 15h-6.1c4.8 14.8 16.5 26.6 31.3 31.5v-6.3c0-8.3 6.7-15 15-15s15 6.7 15 15v6.5c15.1-4.8 27-16.6 31.9-31.7h-6.7zm0 208.8c-8.3 0-15-6.7-15-15s6.7-15 15-15h6.7c-4.9-15.1-16.8-26.9-31.9-31.7v6.5c0 8.3-6.7 15-15 15s-15-6.7-15-15v-6.3c-14.8 4.9-26.5 16.6-31.3 31.5h6.1c8.3 0 15 6.7 15 15s-6.7 15-15 15h-6.1c4.8 14.8 16.5 26.6 31.3 31.5v-6.3c0-8.3 6.7-15 15-15s15 6.7 15 15v6.5c15.1-4.8 27.1-16.6 31.9-31.7h-6.7zm208.9 0c-8.3 0-15-6.7-15-15s6.7-15 15-15h6.7c-4.9-15.1-16.8-26.9-31.9-31.7v6.5c0 8.3-6.7 15-15 15s-15-6.7-15-15v-6.3c-14.8 4.9-26.5 16.6-31.3 31.5h6.1c8.3 0 15 6.7 15 15s-6.7 15-15 15h-6.1c4.8 14.8 16.5 26.6 31.3 31.5v-6.3c0-8.3 6.7-15 15-15s15 6.7 15 15v6.5c15.1-4.8 27.1-16.6 31.9-31.7h-6.7z"/><path class="st0" d="M456.8 0H55.2C24.7 0 0 24.7 0 55.2v401.7C0 487.3 24.7 512 55.2 512h401.7c30.4 0 55.2-24.7 55.2-55.2V55.2C512 24.7 487.3 0 456.8 0zM229.6 374.3c-5.8 32.5-31.5 58.2-64.1 63.9-2.2 5.6-7.6 9.6-14 9.6s-11.9-4-14-9.7c-32.1-5.9-57.5-31.4-63.3-63.5-5.8-2.1-9.9-7.6-9.9-14.1s4.2-12 9.9-14.1c5.8-32.2 31.2-57.6 63.3-63.5 2.2-5.7 7.6-9.7 14-9.7s11.8 4 14 9.6c32.5 5.7 58.3 31.4 64.1 63.9 5.4 2.3 9.3 7.6 9.3 13.9 0 6.1-3.9 11.4-9.3 13.7zm0-208.9c-5.8 32.5-31.5 58.2-64.1 63.9-2.2 5.6-7.6 9.6-14 9.6s-11.9-4-14-9.7c-32.1-5.9-57.5-31.4-63.3-63.5-5.8-2.1-9.9-7.6-9.9-14.1s4.2-12 9.9-14.1c5.8-32.2 31.2-57.6 63.3-63.5 2.2-5.6 7.6-9.7 14-9.7s11.8 4 14 9.6c32.5 5.7 58.3 31.4 64.1 63.9 5.4 2.3 9.3 7.6 9.3 13.9 0 6.1-3.9 11.5-9.3 13.7zm208.9 208.9c-5.8 32.5-31.5 58.2-64.1 63.9-2.2 5.6-7.6 9.6-14 9.6s-11.9-4-14-9.7c-32.1-5.9-57.5-31.4-63.4-63.5-5.8-2.1-9.9-7.6-9.9-14.1s4.2-12 9.9-14.1c5.8-32.2 31.2-57.6 63.4-63.5 2.1-5.7 7.6-9.7 14-9.7s11.8 4 14 9.6c32.5 5.7 58.3 31.4 64.1 63.9 5.4 2.3 9.3 7.6 9.3 13.9-.1 6.1-3.9 11.4-9.3 13.7zm0-208.9c-5.8 32.5-31.5 58.2-64.1 63.9-2.2 5.6-7.6 9.6-14 9.6s-11.9-4-14-9.7c-32.1-5.9-57.5-31.4-63.4-63.5-5.8-2.1-9.9-7.6-9.9-14.1s4.2-12 9.9-14.1c5.8-32.2 31.2-57.6 63.4-63.5 2.1-5.6 7.6-9.7 14-9.7s11.8 4 14 9.6c32.5 5.7 58.3 31.4 64.1 63.9 5.4 2.3 9.3 7.6 9.3 13.9-.1 6.1-3.9 11.5-9.3 13.7z"/><path class="st0" d="M400.6 166.6c-8.3 0-15-6.7-15-15s6.7-15 15-15h6.7c-4.9-15.1-16.8-26.9-31.9-31.7v6.5c0 8.3-6.7 15-15 15s-15-6.7-15-15v-6.3c-14.8 4.9-26.5 16.6-31.3 31.5h6.1c8.3 0 15 6.7 15 15s-6.7 15-15 15h-6.1c4.8 14.8 16.5 26.6 31.3 31.5v-6.3c0-8.3 6.7-15 15-15s15 6.7 15 15v6.5c15.1-4.8 27.1-16.6 31.9-31.7h-6.7z"/></svg>