<svg xmlns="http://www.w3.org/2000/svg" viewBox="0 0 452.4 452.4"><path d="M441.7 43.6h-431C4.8 43.6 0 48.4 0 54.3v297.4c0 5.9 4.8 10.7 10.7 10.7h162.1V388c0 .4.1.7.1 1.1h-23.3c-5.4 0-9.8 4.4-9.8 9.8s4.4 9.8 9.8 9.8h158.5c5.4 0 9.8-4.4 9.8-9.8s-4.4-9.8-9.8-9.8h-23.3c0-.4.1-.7.1-1.1v-25.6h156.7c5.9 0 10.7-4.8 10.7-10.7V54.3c.1-5.9-4.7-10.7-10.6-10.7zm-19.6 261.5c0 5.9-4.8 10.7-10.7 10.7H41c-5.9 0-10.7-4.8-10.7-10.7V79.6c0-5.9 4.8-10.7 10.7-10.7h370.4c5.9 0 10.7 4.8 10.7 10.7v225.5z" fill="#393f41"/></svg>