<svg version="1.1" id="Layer_1" xmlns="http://www.w3.org/2000/svg" x="0" y="0" viewBox="0 0 512 512" xml:space="preserve"><style>.st0{fill:#0f2238}</style><path class="st0" d="M188.1 387.9c37.5 37.5 98.3 37.5 135.8 0 37.5-37.5 37.5-98.3 0-135.8L188.1 387.9z"/><path class="st0" d="M416 0H96C60.7 0 32 28.7 32 64v384c0 35.3 28.7 64 64 64h320c35.3 0 64-28.7 64-64V64c0-35.3-28.7-64-64-64zM224 64c17.7 0 32 14.3 32 32s-14.3 32-32 32-32-14.3-32-32 14.3-32 32-32zM96 96c0-17.7 14.3-32 32-32s32 14.3 32 32-14.3 32-32 32-32-14.3-32-32zm160 352c-70.6 0-128-57.4-128-128s57.4-128 128-128 128 57.4 128 128-57.4 128-128 128z"/></svg>