<svg xmlns="http://www.w3.org/2000/svg" viewBox="0 0 426.7 426.7"><path d="M106.7 85.3c23.6 0 42.7-19.1 42.7-42.7S130.3-.1 106.7-.1 64 19.1 64 42.7c0 23.5 19.1 42.6 42.7 42.6zm192 0c23.6 0 42.7-19.1 42.7-42.7S322.3-.1 298.7-.1C275.1 0 256 19.1 256 42.7c0 23.5 19.1 42.6 42.7 42.6zm-160 21.4h-64c-23.5 0-42.7 19.2-42.7 42.7v117.3h32v160h85.3v-160h32V149.3c0-23.4-19.2-42.6-42.6-42.6zm201.7 29.2c-5.8-17.5-22.1-29.2-40.4-29.2h-2.5c-18.3 0-34.7 11.7-40.4 29.2l-54.4 162.8h64v128h64v-128h64l-54.3-162.8z" fill="#0f2238"/></svg>